<?xml version="1.0" encoding="UTF-8"?><svg id="Capa_2" xmlns="http://www.w3.org/2000/svg" viewBox="0 0 79.99 80"><defs><style>.cls-1{fill:#fff;}</style></defs><g id="Capa_1-2"><path class="cls-1" d="M40.05,0C18.02,0,.09,17.91.09,39.94c0,7.04,1.84,13.91,5.34,19.97L0,80l20.93-4.95c5.84,3.18,12.41,4.86,19.09,4.86h.02c22.02,0,39.94-17.92,39.95-39.94,0-10.68-4.14-20.71-11.69-28.27C60.76,4.16,50.73,0,40.05,0ZM40.04,8c8.54,0,16.57,3.34,22.61,9.37,6.04,6.04,9.35,14.07,9.34,22.6,0,17.62-14.34,31.95-31.96,31.95-5.33,0-10.61-1.34-15.27-3.88l-2.7-1.47-2.98.7-7.88,1.86,1.92-7.14.87-3.2-1.66-2.88c-2.79-4.83-4.27-10.36-4.27-15.97,0-17.61,14.34-31.94,31.95-31.94ZM25.91,21.5c-.67,0-1.75.25-2.66,1.25-.92,1-3.5,3.41-3.5,8.32s3.58,9.66,4.08,10.33c.5.66,6.91,11.06,17.05,15.06,8.43,3.32,10.14,2.67,11.98,2.5,1.83-.16,5.91-2.41,6.74-4.74.83-2.33.83-4.34.59-4.75-.25-.42-.91-.66-1.91-1.16-1-.5-5.9-2.91-6.82-3.24s-1.59-.5-2.25.5c-.66,1-2.57,3.24-3.16,3.91-.58.67-1.16.76-2.16.26-1-.5-4.22-1.56-8.03-4.96-2.97-2.64-4.97-5.91-5.55-6.91-.58-1-.05-1.54.45-2.04.45-.45.99-1.17,1.49-1.75.5-.58.67-1,1-1.66.33-.66.16-1.25-.09-1.75-.25-.5-2.19-5.43-3.08-7.41-.75-1.66-1.54-1.7-2.25-1.73-.58-.02-1.24-.02-1.91-.02Z"/></g></svg>