<?xml version="1.0" encoding="UTF-8"?><svg id="Capa_2" xmlns="http://www.w3.org/2000/svg" viewBox="0 0 29.46 22.29"><defs><style>.cls-1{fill:#7e894e;stroke:#7e894e;stroke-miterlimit:10;stroke-width:.5px;}</style></defs><g id="Capa_1-2"><path class="cls-1" d="M29.21,11.1c0-.62-.18-1.2-.5-1.74-.28-.46-.67-.81-1.03-1.2-.12-.14-.21-.28-.28-.45-.69-1.88-1.39-3.75-2.08-5.63-.48-1.29-1.25-1.83-2.63-1.83-3.7,0-7.41,0-11.11,0-1.53,0-3.05,0-4.58,0-1.18,0-2,.58-2.41,1.69-.58,1.56-1.2,3.1-1.72,4.68-.3.91-.77,1.64-1.51,2.24-.52.42-.82.99-1,1.63-.03.12-.01.26-.11.37v10.92c.15.19.33.26.58.26,1.76,0,3.52,0,5.29,0,.47,0,.61-.14.61-.6,0-.82,0-1.64,0-2.46,0-.17.03-.24.23-.24,5.18,0,10.37,0,15.55,0,.18,0,.24.05.24.23,0,.83,0,1.66,0,2.49,0,.44.14.58.57.58,1.79,0,3.58,0,5.37,0,.39,0,.53-.14.53-.53,0-3.47,0-6.94,0-10.4ZM3.45,7.41c.63-1.71,1.26-3.42,1.89-5.13.31-.85.83-1.2,1.73-1.2,5.24,0,10.48,0,15.72,0,.89,0,1.41.36,1.71,1.19.64,1.73,1.27,3.45,1.92,5.18.08.23.07.29-.2.29-3.77,0-7.54,0-11.31,0s-7.5,0-11.26,0q-.34,0-.22-.33ZM5.7,21.21c-.74,0-1.49,0-2.23,0s-1.45,0-2.17,0c-.17,0-.23-.03-.22-.21.01-.69,0-1.37,0-2.06,0-.16.04-.21.2-.21,1.48,0,2.96,0,4.43,0,.15,0,.19.04.19.19,0,.7,0,1.39,0,2.09,0,.16-.04.21-.2.2ZM28.39,21.01c0,.16-.04.21-.2.21-1.48,0-2.96,0-4.43,0-.17,0-.2-.06-.2-.21,0-.69.01-1.37,0-2.06,0-.19.07-.21.23-.21.72,0,1.45,0,2.17,0s1.47,0,2.2,0c.17,0,.23.04.23.22,0,.69,0,1.37,0,2.06ZM28.4,11.99c-.08,1.88-.02,3.77-.01,5.65,0,.23-.06.28-.28.28-4.46,0-8.92,0-13.37,0s-8.9,0-13.35,0c-.24,0-.32-.05-.31-.31.01-2.03.02-4.05,0-6.08,0-.9.35-1.58.97-2.22.59-.61,1.21-.79,2.04-.78,7.51.03,15.02.02,22.54.01.2,0,.33.07.49.2,1,.86,1.35,1.93,1.3,3.24Z"/><path class="cls-1" d="M18.29,12.44c-1.17,0-2.34,0-3.5,0s-2.39,0-3.59,0c-.39,0-.53.14-.53.52,0,.65,0,1.3,0,1.95,0,.38.15.53.53.53,2.37,0,4.75,0,7.12,0,.39,0,.53-.14.53-.53,0-.64,0-1.28,0-1.92,0-.42-.14-.55-.56-.55ZM17.76,14.62c-1.01,0-2.02,0-3.03,0s-1.96-.01-2.94,0c-.26,0-.31-.08-.3-.31.02-.28.01-.57,0-.85,0-.14.02-.2.18-.2,2.04,0,4.07,0,6.11,0,.16,0,.18.07.18.2,0,.32-.01.64,0,.96,0,.17-.06.2-.21.2Z"/><path class="cls-1" d="M24.8,12.33c-.85-.01-1.69-.01-2.54,0-.87.01-1.53.69-1.52,1.56,0,.86.67,1.54,1.53,1.56.42,0,.85,0,1.27,0s.85,0,1.27,0c.87-.02,1.52-.7,1.52-1.56,0-.87-.65-1.54-1.53-1.55ZM24.72,14.61c-.39,0-.79,0-1.18,0-.4,0-.81,0-1.21,0-.47,0-.76-.29-.76-.73,0-.43.28-.73.75-.74.81-.01,1.62-.01,2.43,0,.47,0,.76.3.76.73,0,.45-.29.73-.78.74Z"/><path class="cls-1" d="M7.22,12.39c-.42,0-.85,0-1.27,0-.43,0-.87,0-1.3,0-.82.02-1.47.68-1.49,1.5-.01.82.63,1.52,1.45,1.54.88.02,1.77.02,2.65,0,.82-.02,1.47-.72,1.46-1.53,0-.83-.67-1.5-1.51-1.52ZM7.12,14.61c-.4,0-.79,0-1.19,0s-.79,0-1.19,0c-.45,0-.76-.29-.76-.7,0-.4.3-.7.75-.71.8-.01,1.6-.01,2.4,0,.48,0,.77.3.75.73-.01.41-.3.67-.77.68Z"/></g></svg>